# Blender v2.79 (sub 0) OBJ File: 'insidetrain.blend'
# www.blender.org
o Cube.001
v 1.278811 1.102241 -0.746294
v 1.278606 1.381639 -0.778817
v 1.278627 1.307692 -1.034092
v 1.278643 1.225076 -1.052089
v 1.278783 1.175422 -0.704025
v 1.278783 1.289460 -0.712478
v 1.278783 1.153619 -1.024969
v 1.278600 1.106290 -0.965438
v 1.377851 1.332255 -0.986557
v 1.395545 1.355175 -0.893295
v 1.278808 1.432526 -0.571393
v 1.278879 1.255832 -1.223343
v 1.494134 1.353798 -0.900087
v 1.462295 1.399954 -0.707298
v 1.446192 1.285272 -1.141388
v 1.278733 1.318683 -1.036565
v 1.278681 1.383482 -0.781339
v 1.446024 1.275010 -1.135563
v 1.462127 1.388730 -0.704768
v 1.493966 1.342575 -0.897558
v 1.278822 1.246523 -1.214285
v 1.278687 1.421335 -0.568872
v 1.375251 1.147218 -0.850091
v 1.389706 1.274949 -0.862534
v 1.278982 1.063370 -0.865616
v 1.395378 1.353299 -0.890766
v 1.372462 1.369348 -0.814717
v 1.278503 1.420268 -1.030355
v 1.372584 1.371208 -0.817243
v 1.366616 1.437591 -0.959457
v 1.377714 1.330495 -0.984055
v 1.366370 1.454443 -0.860833
v 1.278926 1.457353 -0.825183
v 1.278883 1.488131 -0.926370
v 1.361175 1.163108 -0.760242
v 1.366616 1.285717 -0.773610
v 1.369318 1.138205 -0.957185
v 1.391438 1.260389 -0.971393
v 1.278985 1.062712 -0.865446
v 1.323288 1.015653 -0.829614
v 1.306314 1.020525 -0.881046
v 1.278985 1.024878 -0.821532
v 1.278937 1.018629 -0.905565
v 1.375033 0.988107 -0.852258
v 1.365765 1.003563 -0.899430
v 1.278583 0.873558 -0.771907
v 1.386732 0.914680 -0.792518
v 1.414914 0.975882 -0.828096
v 1.402781 0.923595 -0.918384
v 1.278937 0.907434 -0.934924
v 1.362850 0.852958 -0.904626
v 1.278376 0.718901 -0.750492
v 1.386201 0.686210 -0.791817
v 1.469806 0.910395 -0.737483
v 1.477151 0.881459 -0.806529
v 1.349993 0.970140 -0.806785
v 1.417913 0.838192 -0.796036
v 1.365916 0.687359 -0.863629
v 1.277910 0.693872 -0.916089
v 1.493056 0.906900 -0.570416
v 1.488826 0.830063 -0.588805
v 1.439445 0.892565 -0.563071
v 1.438868 0.815668 -0.587128
v 1.498363 0.911770 -0.445173
v 1.480076 0.813063 -0.460639
v 1.420248 0.907748 -0.446642
v 1.422908 0.820369 -0.474883
v 1.279505 0.610211 -0.702633
v 1.401004 0.566426 -0.738717
v 1.405732 0.505503 -0.826854
v 1.278963 0.456039 -0.878109
v 1.279169 0.588826 -0.432629
v 1.388876 0.554497 -0.463722
v 1.321203 0.494729 -0.494564
v 1.279046 0.459232 -0.528301
v 1.278841 0.123303 -0.399737
v 1.384965 0.108921 -0.445371
v 1.333523 0.114498 -0.493530
v 1.278845 0.143219 -0.538768
v 1.278841 0.050905 -0.320773
v 1.385442 0.048746 -0.351410
v 1.333523 0.049159 -0.491244
v 1.279141 0.049702 -0.537741
v 1.329758 0.962089 -0.931999
v 1.413774 0.951728 -0.787901
v 1.278664 0.952136 -0.792406
v 1.433311 0.909375 -0.718572
v 1.410104 0.874189 -0.700090
v 1.441841 0.826125 -0.685748
vn -0.5421 0.1532 -0.8262
vn -0.7824 -0.1728 -0.5983
vn -0.7783 0.3388 -0.5286
vn 0.6475 -0.5487 0.5289
vn 0.7430 0.6471 -0.1708
vn 0.6702 0.7018 0.2412
vn -0.5769 0.6620 -0.4784
vn -0.8730 0.4725 -0.1210
vn -0.5785 0.8153 -0.0248
vn -0.6676 -0.6748 -0.3145
vn -0.5166 -0.8105 -0.2760
vn -0.9717 0.0223 -0.2349
vn 0.4845 -0.8655 -0.1271
vn 0.7142 -0.6827 0.1544
vn -0.4715 -0.8797 -0.0616
vn -0.4819 -0.8218 -0.3040
vn 0.6359 0.3858 -0.6684
vn 0.6153 -0.7646 -0.1916
vn -0.5676 0.8000 -0.1941
vn -0.2057 0.9586 -0.1965
vn -0.3644 0.7070 0.6060
vn -0.3761 -0.3793 0.8454
vn -0.3218 -0.8423 -0.4323
vn -0.2858 0.7028 -0.6514
vn -0.3974 0.1213 -0.9095
vn 0.3646 0.7840 -0.5025
vn 0.4584 0.4078 -0.7896
vn 0.7097 0.5638 -0.4224
vn 0.4555 0.8608 -0.2268
vn 0.6566 0.6784 0.3297
vn 0.2832 0.7176 0.6362
vn 0.3111 0.9366 -0.1609
vn -0.7400 0.5347 0.4081
vn -0.3298 0.8138 0.4783
vn -0.5205 0.4306 0.7373
vn 0.0909 0.7448 -0.6610
vn -0.4447 0.8616 0.2445
vn 0.4473 0.7338 0.5113
vn 0.5133 0.7509 -0.4155
vn 0.6533 0.7518 -0.0891
vn 0.2606 0.5673 0.7812
vn 0.3563 0.5886 -0.7256
vn 0.5242 0.8470 0.0882
vn 0.4957 0.7746 -0.3928
vn 0.1131 0.3363 0.9349
vn 0.1455 0.5518 0.8212
vn 0.6251 0.0146 -0.7804
vn 0.1010 0.2534 -0.9621
vn 0.5886 -0.2835 -0.7571
vn 0.1884 0.1194 0.9748
vn 0.9033 0.2038 0.3773
vn -0.4017 0.0940 0.9109
vn 0.5193 0.8544 0.0184
vn 0.9048 -0.2074 -0.3719
vn -0.2221 -0.9622 -0.1577
vn 0.4641 -0.1523 -0.8726
vn 0.7769 -0.0674 -0.6260
vn 0.7244 0.6818 0.1017
vn 0.8014 -0.5907 -0.0932
vn -0.9854 0.0172 0.1690
vn -0.1809 -0.9719 -0.1505
vn -0.5517 -0.8329 -0.0438
vn 0.4489 -0.7024 0.5523
vn -0.7259 -0.5915 0.3509
vn 0.6687 0.7435 -0.0083
vn -0.7664 0.6423 0.0037
vn -0.6380 0.5300 0.5585
vn 0.6083 0.5435 0.5784
vn 0.5054 -0.6404 -0.5783
vn 0.8080 -0.4543 -0.3751
vn 0.4268 0.7564 0.4957
vn 0.9344 0.1986 0.2956
vn 0.7360 -0.5136 -0.4410
vn 0.7266 -0.4518 -0.5176
vn 0.8718 0.3070 0.3818
vn 0.6627 -0.0009 -0.7489
vn 0.6414 0.0130 -0.7670
vn 0.9957 0.0800 -0.0466
vn 0.3524 0.4515 0.8197
vn 0.6421 -0.0160 -0.7664
vn 0.7339 -0.1479 -0.6629
vn 0.6026 0.6238 0.4977
vn 0.1485 -0.0419 -0.9880
vn -0.1242 0.7265 0.6758
vn -0.3643 0.8777 0.3113
vn -0.5584 -0.2647 -0.7862
vn 0.4093 0.2361 0.8813
vn 0.3886 0.6527 0.6503
vn 0.2047 0.7215 0.6615
s 1
f 5//1 36//2 35//3
f 19//4 13//5 14//6
f 1//7 23//8 25//9
f 5//1 35//3 1//7
f 36//2 2//10 27//11
f 27//11 24//12 36//2
f 31//13 20//14 26//15
f 21//16 15//17 18//18
f 18//18 13//5 20//14
f 17//19 14//6 29//20
f 19//4 11//21 22//22
f 3//23 18//18 31//13
f 13//5 29//20 14//6
f 21//16 16//24 12//25
f 29//20 26//15 27//11
f 20//14 27//11 26//15
f 19//4 2//10 27//11
f 17//19 27//11 2//10
f 9//26 13//5 15//17
f 16//24 15//17 12//25
f 16//24 28//27 9//26
f 28//27 30//28 9//26
f 9//26 30//28 10//29
f 30//28 32//30 10//29
f 29//20 10//29 32//30
f 29//20 32//30 17//19
f 32//30 33//31 17//19
f 33//31 32//30 34//32
f 32//30 30//28 34//32
f 30//28 28//27 34//32
f 24//12 35//3 36//2
f 37//33 25//9 23//8
f 8//34 37//33 7//35
f 23//8 38//36 37//33
f 7//35 38//36 4//37
f 38//36 3//23 31//13
f 26//15 38//36 31//13
f 40//38 41//39 39//40
f 40//38 39//40 42//41
f 41//39 43//42 39//40
f 41//39 44//43 45//44
f 40//38 86//45 56//46
f 44//43 40//38 56//46
f 44//43 49//47 45//44
f 84//48 49//47 51//49
f 49//47 84//48 45//44
f 46//50 53//51 47//52
f 48//53 55//54 49//47
f 49//47 57//55 51//49
f 59//56 51//49 58//57
f 54//58 61//59 55//54
f 88//60 57//55 89//61
f 63//62 65//63 67//64
f 60//65 65//63 61//59
f 62//66 67//64 66//67
f 62//66 64//68 60//65
f 65//63 66//67 67//64
f 58//57 71//69 59//56
f 53//51 70//70 58//57
f 53//51 68//71 69//72
f 70//70 75//73 71//69
f 69//72 74//74 70//70
f 68//71 73//75 69//72
f 75//73 78//76 79//77
f 74//74 77//78 78//76
f 73//75 76//79 77//78
f 78//76 83//80 79//77
f 77//78 82//81 78//76
f 76//79 81//82 77//78
f 2//10 11//21 17//19
f 41//39 84//48 43//42
f 50//83 84//48 51//49
f 56//46 48//53 44//43
f 47//52 86//45 46//50
f 54//58 85//84 87//85
f 60//65 87//85 62//66
f 56//46 47//52 85//84
f 51//49 57//55 47//52
f 87//85 47//52 88//60
f 63//62 88//60 89//61
f 87//85 88//60 62//66
f 63//62 89//61 61//59
f 55//54 89//61 57//55
f 53//51 51//49 47//52
f 5//1 6//86 36//2
f 19//4 20//14 13//5
f 1//7 35//3 23//8
f 36//2 6//86 2//10
f 27//11 26//15 24//12
f 31//13 18//18 20//14
f 21//16 12//25 15//17
f 18//18 15//17 13//5
f 17//19 11//21 14//6
f 19//4 14//6 11//21
f 3//23 21//16 18//18
f 13//5 10//29 29//20
f 21//16 3//23 16//24
f 29//20 10//29 26//15
f 20//14 19//4 27//11
f 19//4 22//22 2//10
f 17//19 29//20 27//11
f 9//26 10//29 13//5
f 16//24 9//26 15//17
f 24//12 23//8 35//3
f 37//33 8//34 25//9
f 23//8 24//12 38//36
f 7//35 37//33 38//36
f 38//36 4//37 3//23
f 26//15 24//12 38//36
f 41//39 40//38 44//43
f 40//38 42//41 86//45
f 44//43 48//53 49//47
f 46//50 52//87 53//51
f 48//53 54//58 55//54
f 49//47 55//54 57//55
f 59//56 50//83 51//49
f 54//58 60//65 61//59
f 88//60 47//52 57//55
f 63//62 61//59 65//63
f 60//65 64//68 65//63
f 62//66 63//62 67//64
f 62//66 66//67 64//68
f 65//63 64//68 66//67
f 58//57 70//70 71//69
f 53//51 69//72 70//70
f 53//51 52//87 68//71
f 70//70 74//74 75//73
f 69//72 73//75 74//74
f 68//71 72//88 73//75
f 75//73 74//74 78//76
f 74//74 73//75 77//78
f 73//75 72//88 76//79
f 78//76 82//81 83//80
f 77//78 81//82 82//81
f 76//79 80//89 81//82
f 2//10 22//22 11//21
f 41//39 45//44 84//48
f 50//83 43//42 84//48
f 56//46 85//84 48//53
f 47//52 56//46 86//45
f 54//58 48//53 85//84
f 60//65 54//58 87//85
f 87//85 85//84 47//52
f 63//62 62//66 88//60
f 55//54 61//59 89//61
f 53//51 58//57 51//49
