# Blender v2.79 (sub 0) OBJ File: ''
# www.blender.org
o Cube
v 0.318984 -0.318984 -0.318984
v 0.318984 -0.318984 0.318984
v -0.318984 -0.318984 0.318984
v -0.318984 -0.318984 -0.318984
v 0.318984 0.318984 -0.318984
v 0.318984 0.318984 0.318985
v -0.318984 0.318984 0.318984
v -0.318984 0.318984 -0.318984
vt 0.753863 0.386762
vt 1.003820 0.636719
vt 0.753863 0.636719
vt 0.503906 0.636719
vt 0.253950 0.386762
vt 0.503906 0.386762
vt 0.253950 0.136805
vt 0.503906 0.136805
vt 0.003993 0.386762
vt 0.253950 0.636719
vt 0.003993 0.636719
vt 0.503906 0.886675
vt 1.003820 0.386762
vt 0.253950 0.886675
vn 0.0000 -1.0000 0.0000
vn 0.0000 1.0000 0.0000
vn 1.0000 -0.0000 0.0000
vn -0.0000 -0.0000 1.0000
vn -1.0000 -0.0000 -0.0000
vn 0.0000 0.0000 -1.0000
s off
f 2/1/1 4/2/1 1/3/1
f 5/4/2 7/5/2 6/6/2
f 5/4/3 2/1/3 1/3/3
f 6/6/4 3/7/4 2/8/4
f 3/9/5 8/10/5 4/11/5
f 1/12/6 8/10/6 5/4/6
f 2/1/1 3/13/1 4/2/1
f 5/4/2 8/10/2 7/5/2
f 5/4/3 6/6/3 2/1/3
f 6/6/4 7/5/4 3/7/4
f 3/9/5 7/5/5 8/10/5
f 1/12/6 4/14/6 8/10/6
